<?xml version="1.0" encoding="UTF-8" standalone="no"?>
<!-- Created with Inkscape (http://www.inkscape.org/) -->

<svg
   width="210mm"
   height="297mm"
   viewBox="0 0 210 297"
   version="1.1"
   id="svg5"
   sodipodi:docname="loading_centered_single_centered.svg"
   inkscape:version="1.2.2 (b0a8486541, 2022-12-01)"
   xmlns:inkscape="http://www.inkscape.org/namespaces/inkscape"
   xmlns:sodipodi="http://sodipodi.sourceforge.net/DTD/sodipodi-0.dtd"
   xmlns="http://www.w3.org/2000/svg"
   xmlns:svg="http://www.w3.org/2000/svg">
  <sodipodi:namedview
     id="namedview7"
     pagecolor="#ffffff"
     bordercolor="#000000"
     borderopacity="0.25"
     inkscape:showpageshadow="2"
     inkscape:pageopacity="0.0"
     inkscape:pagecheckerboard="0"
     inkscape:deskcolor="#d1d1d1"
     inkscape:document-units="mm"
     showgrid="false"
     inkscape:zoom="0.59741806"
     inkscape:cx="396.70713"
     inkscape:cy="560.74636"
     inkscape:window-width="1920"
     inkscape:window-height="1007"
     inkscape:window-x="0"
     inkscape:window-y="0"
     inkscape:window-maximized="1"
     inkscape:current-layer="layer1" />
  <defs
     id="defs2" />
  <g
     inkscape:label="Layer 1"
     inkscape:groupmode="layer"
     id="layer1">
    <path
       style="fill:#afe9dd;stroke-width:0.264583"
       d="m 104.99999,114.69457 a 33.805214,33.805214 0 0 0 -33.80516,33.80569 33.805214,33.805214 0 0 0 33.80516,33.80517 33.805214,33.805214 0 0 0 18.4857,-5.52369 33.805214,33.805214 0 0 1 -5.27565,-6.79959 25.539286,25.544687 0 0 1 -13.27826,3.72742 25.539286,25.544687 0 0 1 -25.53952,-25.54469 25.539286,25.544687 0 0 1 25.53952,-25.5447 25.539286,25.544687 0 0 1 17.74827,7.17786 33.805214,33.805214 0 0 1 6.21823,-5.20382 33.805214,33.805214 0 0 0 -23.89829,-9.89965 z"
       id="path115" />
  </g>
</svg>
